<svg xmlns="http://www.w3.org/2000/svg" viewBox="0 0 1024 1024">
  <defs>
    <linearGradient id="bgGrad" x1="0%" y1="0%" x2="100%" y2="100%">
      <stop offset="0%" style="stop-color:#0f172a"/>
      <stop offset="100%" style="stop-color:#1e293b"/>
    </linearGradient>
    <linearGradient id="waveGrad" x1="0%" y1="0%" x2="100%" y2="0%">
      <stop offset="0%" style="stop-color:#06b6d4"/>
      <stop offset="50%" style="stop-color:#3b82f6"/>
      <stop offset="100%" style="stop-color:#8b5cf6"/>
    </linearGradient>
    <linearGradient id="cutGrad" x1="0%" y1="0%" x2="0%" y2="100%">
      <stop offset="0%" style="stop-color:#f43f5e"/>
      <stop offset="100%" style="stop-color:#e11d48"/>
    </linearGradient>
  </defs>

  <!-- Background rounded square -->
  <rect width="1024" height="1024" rx="224" fill="url(#bgGrad)"/>

  <!-- Subtle grid pattern -->
  <g opacity="0.03" stroke="#fff" stroke-width="1">
    <line x1="0" y1="256" x2="1024" y2="256"/>
    <line x1="0" y1="512" x2="1024" y2="512"/>
    <line x1="0" y1="768" x2="1024" y2="768"/>
    <line x1="256" y1="0" x2="256" y2="1024"/>
    <line x1="512" y1="0" x2="512" y2="1024"/>
    <line x1="768" y1="0" x2="768" y2="1024"/>
  </g>

  <!-- Waveform bars — left side (speech) -->
  <g transform="translate(100, 310)">
    <rect x="0" y="70" width="32" height="80" rx="16" fill="url(#waveGrad)" opacity="0.5"/>
    <rect x="48" y="40" width="32" height="140" rx="16" fill="url(#waveGrad)" opacity="0.65"/>
    <rect x="96" y="15" width="32" height="190" rx="16" fill="url(#waveGrad)" opacity="0.8"/>
    <rect x="144" y="0" width="32" height="220" rx="16" fill="url(#waveGrad)" opacity="0.95"/>
    <rect x="192" y="25" width="32" height="170" rx="16" fill="url(#waveGrad)" opacity="0.85"/>
    <rect x="240" y="50" width="32" height="120" rx="16" fill="url(#waveGrad)" opacity="0.65"/>
    <rect x="288" y="70" width="32" height="80" rx="16" fill="url(#waveGrad)" opacity="0.45"/>
  </g>

  <!-- Waveform bars — right side (speech, shifted closer) -->
  <g transform="translate(600, 310)">
    <rect x="0" y="70" width="32" height="80" rx="16" fill="url(#waveGrad)" opacity="0.45"/>
    <rect x="48" y="45" width="32" height="130" rx="16" fill="url(#waveGrad)" opacity="0.65"/>
    <rect x="96" y="20" width="32" height="180" rx="16" fill="url(#waveGrad)" opacity="0.8"/>
    <rect x="144" y="5" width="32" height="210" rx="16" fill="url(#waveGrad)" opacity="0.95"/>
    <rect x="192" y="30" width="32" height="160" rx="16" fill="url(#waveGrad)" opacity="0.8"/>
    <rect x="240" y="55" width="32" height="110" rx="16" fill="url(#waveGrad)" opacity="0.6"/>
    <rect x="288" y="75" width="32" height="70" rx="16" fill="url(#waveGrad)" opacity="0.4"/>
  </g>

  <!-- Big scissors in the center -->
  <g transform="translate(512, 420)">
    <!-- Diagonal cut line (background glow) -->
    <line x1="-30" y1="-180" x2="30" y2="180" stroke="#f43f5e" stroke-width="4" stroke-linecap="round" opacity="0.3"/>

    <!-- Top blade -->
    <ellipse cx="-30" cy="-110" rx="44" ry="44" fill="none" stroke="url(#cutGrad)" stroke-width="10"/>
    <!-- Bottom blade -->
    <ellipse cx="-30" cy="110" rx="44" ry="44" fill="none" stroke="url(#cutGrad)" stroke-width="10"/>

    <!-- Handle to pivot — top blade -->
    <line x1="-10" y1="-72" x2="80" y2="20" stroke="url(#cutGrad)" stroke-width="10" stroke-linecap="round"/>
    <!-- Handle to pivot — bottom blade -->
    <line x1="-10" y1="72" x2="80" y2="-20" stroke="url(#cutGrad)" stroke-width="10" stroke-linecap="round"/>

    <!-- Pivot point -->
    <circle cx="36" cy="0" r="10" fill="#f43f5e"/>
  </g>

  <!-- App name -->
  <text x="512" y="880" text-anchor="middle" fill="white" font-family="SF Pro Display,system-ui,-apple-system,sans-serif" font-size="96" font-weight="800" letter-spacing="8" opacity="0.95">Silenci</text>
</svg>
